<?xml version="1.0" encoding="utf-8"?>
<!-- Generator: Adobe Illustrator 20.0.0, SVG Export Plug-In . SVG Version: 6.00 Build 0)  -->
<svg version="1.1" id="Ebene_1" xmlns="http://www.w3.org/2000/svg" xmlns:xlink="http://www.w3.org/1999/xlink" x="0px" y="0px"
	 viewBox="0 0 245.9 64" style="enable-background:new 0 0 245.9 64;" xml:space="preserve">
<style type="text/css">
	.st0{fill:#222046;}
	.st1{fill:#7A9FD4;}
	.st2{fill:#009CCE;}
	.st3{fill:#017FAB;}
	.st4{fill:#709ED4;}
	.st5{fill:#587583;}
	.st6{fill:#86CFEA;}
	.st7{fill:#1C83A1;}
	.st8{fill:#7B9DCF;}
	.st9{fill:#045EA0;}
	.st10{fill:#025D96;}
	.st11{fill:#A9C8EA;}
	.st12{fill:#F7DFD3;}
	.st13{fill:#A3D8EB;}
	.st14{fill:#075498;}
	.st15{fill:#009BC7;}
	.st16{fill:#8D90C7;}
	.st17{fill:#7E6393;}
	.st18{fill:#A98589;}
	.st19{fill:#315CA5;}
	.st20{fill:#8299BB;}
	.st21{fill:#DC826A;}
	.st22{fill:#9DA0B2;}
	.st23{fill:#6F74B0;}
	.st24{fill:#2B4692;}
	.st25{fill:#AE6667;}
	.st26{fill:#DD8463;}
	.st27{fill:#928FBA;}
	.st28{fill:#2A74AD;}
	.st29{fill:#93A8B8;}
	.st30{fill:#B68B92;}
	.st31{fill:#6B799C;}
	.st32{fill:#7178A2;}
	.st33{fill:#1763AD;}
	.st34{fill:#79687D;}
	.st35{fill:#CB672E;}
	.st36{fill:#FED325;}
	.st37{fill:#925D51;}
	.st38{fill:#3E65AD;}
	.st39{fill:#B67F85;}
	.st40{fill:#C29693;}
	.st41{fill:#588EC6;}
	.st42{fill:#1B9DD9;}
	.st43{fill:#BBACBA;}
	.st44{fill:#DF5E43;}
	.st45{fill:#BF9090;}
	.st46{fill:#F59D3E;}
	.st47{fill:#EE7234;}
	.st48{fill:#F7C332;}
	.st49{fill:#F6A64F;}
	.st50{fill:#232148;}
	.st51{fill:#C49386;}
	.st52{fill:#779A99;}
	.st53{fill:#2C6FB7;}
	.st54{fill:#E8DCD8;}
	.st55{fill:#3D79AC;}
	.st56{fill:#DF928C;}
	.st57{fill:#197F96;}
	.st58{fill:#6E92BA;}
	.st59{fill:#CFA4A0;}
	.st60{fill:#2983C3;}
	.st61{fill:#244B96;}
	.st62{fill:#245DA8;}
	.st63{fill:#B39533;}
	.st64{fill:#EDB230;}
	.st65{fill:#859CAA;}
	.st66{fill:#D2796E;}
	.st67{fill:#778DB7;}
	.st68{fill:#A29CB9;}
	.st69{fill:#468ECC;}
	.st70{fill:#EF7C37;}
	.st71{fill:#F28D37;}
	.st72{fill:#FCC13E;}
	.st73{fill:#F2B17F;}
	.st74{fill:#DCA091;}
	.st75{fill:#FBCB9F;}
	.st76{fill:#D6CFCC;}
	.st77{fill:#F5A163;}
	.st78{fill:#547ABD;}
	.st79{fill:#4E5790;}
	.st80{fill:#D2A4A0;}
</style>
<path class="st0" d="M228.1,47c8,0,13-3.1,17.6-7.8l-3.3-3.2c-4.2,4.1-8.2,6.4-14.2,6.4c-9.7,0-17.1-8-17.1-18.3V24
	c0-10.2,7.3-18.2,17.1-18.2c6,0,10.1,2.5,13.9,6.1l3.4-3.7c-4.4-4.2-9.2-7-17.2-7c-13,0-22.3,10.4-22.3,22.9v0.1
	C206,37,215.4,47,228.1,47"/>
<polygon class="st0" points="150.7,46.3 155.8,46.3 161,34.6 173.1,7.4 185,34.6 190.2,46.3 195.5,46.3 175.4,1.7 170.8,1.7 "/>
<rect x="130.3" y="2" class="st0" width="5" height="44.3"/>
<polygon class="st0" points="68.9,46.3 73.7,46.3 73.7,10.5 89.8,34.1 90,34.1 106.1,10.4 106.1,46.3 111.1,46.3 111.1,2 106,2 
	90,26.2 73.9,2 68.9,2 "/>
<polygon class="st0" points="68.9,53.2 69.9,53.2 73,58 76.2,53.2 77.2,53.2 77.2,62 76.2,62 76.2,54.9 73,59.6 73,59.6 69.8,54.9 
	69.8,62 68.9,62 "/>
<path class="st0" d="M82,61.3c0.9,0,1.5-0.4,2-0.9l0.6,0.5c-0.6,0.7-1.4,1.2-2.7,1.2c-1.8,0-3.2-1.4-3.2-3.4c0-1.9,1.3-3.4,3.1-3.4
	c1.9,0,3,1.5,3,3.4c0,0.1,0,0.2,0,0.3h-5.1C79.8,60.5,80.8,61.3,82,61.3 M83.8,58.4c-0.1-1.2-0.8-2.2-2.1-2.2c-1.1,0-2,0.9-2.1,2.2
	H83.8z"/>
<path class="st0" d="M85.7,58.8L85.7,58.8c0-2.1,1.5-3.4,3.1-3.4c1.2,0,2,0.6,2.5,1.4v-3.9h1V62h-1v-1.3c-0.5,0.8-1.3,1.4-2.5,1.4
	C87.3,62.1,85.7,60.9,85.7,58.8 M91.3,58.7L91.3,58.7c0-1.5-1.1-2.5-2.3-2.5c-1.2,0-2.3,0.9-2.3,2.5v0c0,1.5,1,2.5,2.3,2.5
	C90.2,61.2,91.3,60.2,91.3,58.7"/>
<path class="st0" d="M94,53.1h1.1v1.1H94V53.1z M94.1,55.5h1V62h-1V55.5z"/>
<path class="st0" d="M96.5,58.8L96.5,58.8c0-1.8,1.4-3.4,3.3-3.4c1.2,0,2,0.5,2.6,1.1l-0.6,0.7c-0.5-0.5-1.1-1-2-1
	c-1.3,0-2.3,1.1-2.3,2.5v0c0,1.4,1,2.5,2.4,2.5c0.8,0,1.5-0.4,2-1l0.6,0.6c-0.6,0.7-1.4,1.2-2.6,1.2C98,62.1,96.5,60.6,96.5,58.8"/>
<path class="st0" d="M103.2,60.1L103.2,60.1c0-1.4,1.1-2.1,2.8-2.1c0.8,0,1.4,0.1,2,0.3V58c0-1.1-0.7-1.7-1.9-1.7
	c-0.8,0-1.4,0.2-2,0.5l-0.3-0.8c0.7-0.3,1.4-0.5,2.3-0.5c0.9,0,1.6,0.2,2.1,0.7c0.4,0.4,0.7,1.1,0.7,1.9V62h-0.9v-1
	c-0.4,0.6-1.2,1.1-2.3,1.1C104.4,62.1,103.2,61.4,103.2,60.1 M107.9,59.6V59c-0.5-0.1-1.1-0.3-1.9-0.3c-1.2,0-1.9,0.5-1.9,1.3v0
	c0,0.8,0.7,1.3,1.6,1.3C106.9,61.3,107.9,60.6,107.9,59.6"/>
<rect x="110.6" y="52.9" class="st0" width="1" height="9.1"/>
<rect x="117" y="53.2" class="st0" width="1" height="8.7"/>
<path class="st0" d="M120,55.5h1v1.1c0.4-0.6,1-1.2,2.1-1.2c1,0,1.7,0.6,2.1,1.3c0.5-0.7,1.1-1.3,2.3-1.3c1.5,0,2.4,1,2.4,2.6v4h-1
	v-3.8c0-1.2-0.6-1.9-1.7-1.9c-1,0-1.8,0.7-1.8,2V62h-0.9v-3.8c0-1.2-0.6-1.9-1.7-1.9c-1,0-1.8,0.8-1.8,2V62h-1V55.5z"/>
<path class="st0" d="M131,60.1L131,60.1c0-1.4,1.1-2.1,2.8-2.1c0.8,0,1.4,0.1,2,0.3V58c0-1.1-0.7-1.7-1.9-1.7c-0.8,0-1.4,0.2-2,0.5
	l-0.3-0.8c0.7-0.3,1.4-0.5,2.3-0.5c0.9,0,1.6,0.2,2.1,0.7c0.4,0.4,0.7,1.1,0.7,1.9V62h-0.9v-1c-0.4,0.6-1.2,1.1-2.3,1.1
	C132.2,62.1,131,61.4,131,60.1 M135.7,59.6V59c-0.5-0.1-1.1-0.3-1.9-0.3c-1.2,0-1.9,0.5-1.9,1.3v0c0,0.8,0.7,1.3,1.6,1.3
	C134.8,61.3,135.7,60.6,135.7,59.6"/>
<path class="st0" d="M138.3,63.1l0.4-0.7c0.7,0.5,1.6,0.8,2.5,0.8c1.4,0,2.3-0.8,2.3-2.3v-0.8c-0.6,0.7-1.3,1.4-2.5,1.4
	c-1.5,0-3-1.2-3-3v0c0-1.9,1.5-3,3-3c1.2,0,2,0.6,2.5,1.3v-1.2h1v5.3c0,1-0.3,1.8-0.8,2.3c-0.6,0.6-1.4,0.9-2.5,0.9
	C140.1,64,139.1,63.7,138.3,63.1 M143.5,58.4L143.5,58.4c0-1.3-1.1-2.2-2.4-2.2c-1.2,0-2.2,0.8-2.2,2.2v0c0,1.3,1,2.2,2.2,2.2
	C142.4,60.6,143.5,59.7,143.5,58.4"/>
<path class="st0" d="M149.1,61.3c0.9,0,1.5-0.4,2-0.9l0.6,0.5c-0.6,0.7-1.4,1.2-2.7,1.2c-1.8,0-3.2-1.4-3.2-3.4
	c0-1.9,1.3-3.4,3.1-3.4c1.9,0,3,1.5,3,3.4c0,0.1,0,0.2,0,0.3h-5.1C147,60.5,147.9,61.3,149.1,61.3 M151,58.4
	c-0.1-1.2-0.8-2.2-2.1-2.2c-1.1,0-2,0.9-2.1,2.2H151z"/>
<path class="st0" d="M160,53.2h0.9l4,8.8h-1.1l-1-2.3h-4.7l-1,2.3h-1L160,53.2z M162.4,58.8l-2-4.4l-2,4.4H162.4z"/>
<path class="st0" d="M166.1,55.5h1v1.1c0.4-0.7,1.1-1.3,2.2-1.3c1.6,0,2.5,1,2.5,2.6v4h-1v-3.8c0-1.2-0.6-1.9-1.8-1.9
	c-1.1,0-1.9,0.8-1.9,2V62h-1V55.5z"/>
<path class="st0" d="M172.9,60.1L172.9,60.1c0-1.4,1.1-2.1,2.8-2.1c0.8,0,1.4,0.1,2,0.3V58c0-1.1-0.7-1.7-1.9-1.7
	c-0.8,0-1.4,0.2-2,0.5l-0.3-0.8c0.7-0.3,1.4-0.5,2.3-0.5c0.9,0,1.6,0.2,2.1,0.7c0.4,0.4,0.7,1.1,0.7,1.9V62h-0.9v-1
	c-0.4,0.6-1.2,1.1-2.3,1.1C174.1,62.1,172.9,61.4,172.9,60.1 M177.6,59.6V59c-0.5-0.1-1.1-0.3-1.9-0.3c-1.2,0-1.9,0.5-1.9,1.3v0
	c0,0.8,0.7,1.3,1.6,1.3C176.7,61.3,177.6,60.6,177.6,59.6"/>
<rect x="180.3" y="52.9" class="st0" width="1" height="9.1"/>
<path class="st0" d="M182.7,63.7l0.3-0.8c0.3,0.2,0.6,0.2,1,0.2c0.6,0,0.9-0.3,1.3-1.2l-2.9-6.4h1.1l2.3,5.4l2.1-5.4h1l-2.7,6.6
	c-0.5,1.3-1.2,1.8-2.1,1.8C183.6,64,183.2,63.9,182.7,63.7"/>
<path class="st0" d="M189.3,61.1l0.5-0.7c0.7,0.5,1.5,0.8,2.2,0.8c0.8,0,1.3-0.4,1.3-1v0c0-0.6-0.8-0.9-1.6-1.1
	c-1-0.3-2.1-0.6-2.1-1.8v0c0-1.1,0.9-1.8,2.2-1.8c0.8,0,1.7,0.3,2.3,0.7l-0.4,0.7c-0.6-0.4-1.3-0.6-1.9-0.6c-0.8,0-1.2,0.4-1.2,0.9
	v0c0,0.6,0.8,0.8,1.7,1.1c1,0.3,2.1,0.7,2.1,1.8v0c0,1.2-1,1.9-2.3,1.9C191.1,62.1,190,61.7,189.3,61.1"/>
<path class="st0" d="M195.7,53.1h1.1v1.1h-1.1V53.1z M195.8,55.5h1V62h-1V55.5z"/>
<path class="st0" d="M198.1,61.1l0.5-0.7c0.7,0.5,1.5,0.8,2.2,0.8c0.8,0,1.3-0.4,1.3-1v0c0-0.6-0.8-0.9-1.6-1.1
	c-1-0.3-2.1-0.6-2.1-1.8v0c0-1.1,0.9-1.8,2.2-1.8c0.8,0,1.7,0.3,2.3,0.7l-0.4,0.7c-0.6-0.4-1.3-0.6-1.9-0.6c-0.8,0-1.2,0.4-1.2,0.9
	v0c0,0.6,0.8,0.8,1.7,1.1c1,0.3,2.1,0.7,2.1,1.8v0c0,1.2-1,1.9-2.3,1.9C199.8,62.1,198.8,61.7,198.1,61.1"/>
<path class="st0" d="M207.6,57.6L207.6,57.6c0-2.5,1.8-4.5,4.4-4.5c1.6,0,2.5,0.6,3.4,1.4l-0.7,0.7c-0.7-0.7-1.6-1.2-2.7-1.2
	c-1.9,0-3.4,1.6-3.4,3.6v0c0,2,1.5,3.6,3.4,3.6c1.2,0,2-0.5,2.8-1.3l0.6,0.6c-0.9,0.9-1.9,1.5-3.5,1.5
	C209.4,62.1,207.6,60.1,207.6,57.6"/>
<path class="st0" d="M219.3,61.3c0.9,0,1.5-0.4,2-0.9l0.6,0.5c-0.6,0.7-1.4,1.2-2.7,1.2c-1.8,0-3.2-1.4-3.2-3.4
	c0-1.9,1.3-3.4,3.1-3.4c1.9,0,3,1.5,3,3.4c0,0.1,0,0.2,0,0.3h-5.1C217.2,60.5,218.2,61.3,219.3,61.3 M221.2,58.4
	c-0.1-1.2-0.8-2.2-2.1-2.2c-1.1,0-2,0.9-2.1,2.2H221.2z"/>
<path class="st0" d="M223.5,55.5h1v1.1c0.4-0.7,1.1-1.3,2.2-1.3c1.6,0,2.5,1,2.5,2.6v4h-1v-3.8c0-1.2-0.6-1.9-1.8-1.9
	c-1.1,0-1.9,0.8-1.9,2V62h-1V55.5z"/>
<path class="st0" d="M231.1,60.3v-3.9h-0.9v-0.8h0.9v-1.9h1v1.9h2v0.8h-2v3.8c0,0.8,0.4,1.1,1.1,1.1c0.3,0,0.6-0.1,0.9-0.2v0.8
	c-0.3,0.2-0.7,0.3-1.2,0.3C231.9,62.1,231.1,61.6,231.1,60.3"/>
<path class="st0" d="M238.1,61.3c0.9,0,1.5-0.4,2-0.9l0.6,0.5c-0.6,0.7-1.4,1.2-2.7,1.2c-1.8,0-3.2-1.4-3.2-3.4
	c0-1.9,1.3-3.4,3.1-3.4c1.9,0,3,1.5,3,3.4c0,0.1,0,0.2,0,0.3h-5.1C236,60.5,237,61.3,238.1,61.3 M240,58.4c-0.1-1.2-0.8-2.2-2.1-2.2
	c-1.1,0-2,0.9-2.1,2.2H240z"/>
<path class="st0" d="M242.3,55.5h1v1.7c0.5-1.1,1.4-1.8,2.6-1.8v1h-0.1c-1.4,0-2.6,1-2.6,2.9V62h-1V55.5z"/>
<rect x="24.5" y="60.7" class="st1" width="2.5" height="2.5"/>
<rect x="29.8" y="60.5" class="st2" width="2.5" height="2.5"/>
<rect x="33.6" y="60.2" class="st3" width="2.5" height="2.5"/>
<rect x="37.6" y="59.5" class="st4" width="2.5" height="2.5"/>
<rect x="40.9" y="57.4" class="st1" width="2.5" height="2.5"/>
<rect x="44" y="55.6" class="st1" width="2.5" height="2.5"/>
<rect x="47" y="53" class="st2" width="2.5" height="2.5"/>
<rect x="50" y="49.6" class="st5" width="2.5" height="2.5"/>
<rect x="27.6" y="54.4" class="st6" width="2.5" height="2.5"/>
<rect x="24.1" y="57.6" class="st1" width="2.5" height="2.5"/>
<rect x="20.5" y="57.1" class="st7" width="2.5" height="2.5"/>
<rect x="27.4" y="57.6" class="st8" width="2.5" height="2.5"/>
<rect x="20.7" y="60.4" class="st9" width="2.5" height="2.5"/>
<rect x="17.3" y="59.9" class="st2" width="2.5" height="2.5"/>
<rect y="40.1" class="st5" width="2.5" height="2.5"/>
<rect x="14.3" y="58.2" class="st10" width="2.5" height="2.5"/>
<rect x="14.3" y="54.2" class="st11" width="2.5" height="2.5"/>
<rect x="17.3" y="56.7" class="st6" width="2.5" height="2.5"/>
<rect x="14.3" y="50.7" class="st12" width="2.5" height="2.5"/>
<rect x="20.5" y="54.2" class="st12" width="2.5" height="2.5"/>
<rect x="17.3" y="50.8" class="st13" width="2.5" height="2.5"/>
<rect x="0.2" y="37" class="st11" width="2.5" height="2.5"/>
<rect x="0.4" y="33.9" class="st2" width="2.5" height="2.5"/>
<rect x="0.9" y="30.6" class="st4" width="2.5" height="2.5"/>
<rect x="1.2" y="27.4" class="st5" width="2.5" height="2.5"/>
<rect x="1.5" y="24.2" class="st14" width="2.5" height="2.5"/>
<rect x="2.6" y="21" class="st14" width="2.5" height="2.5"/>
<rect x="4.4" y="17.9" class="st14" width="2.5" height="2.5"/>
<rect x="7.9" y="18" class="st15" width="2.5" height="2.5"/>
<rect x="11.1" y="17.8" class="st16" width="2.5" height="2.5"/>
<rect x="12" y="14.8" class="st6" width="2.5" height="2.5"/>
<rect x="12" y="8.3" class="st8" width="2.5" height="2.5"/>
<rect x="11.9" y="5.2" class="st11" width="2.5" height="2.5"/>
<rect x="17" y="1.9" class="st2" width="2.5" height="2.5"/>
<rect x="15.1" y="5.2" class="st8" width="2.5" height="2.5"/>
<rect x="37.1" y="3.1" class="st17" width="2.5" height="2.5"/>
<rect x="51.3" y="23.6" class="st8" width="2.5" height="2.5"/>
<rect x="52" y="26.7" class="st2" width="2.5" height="2.5"/>
<rect x="52.5" y="33.1" class="st8" width="2.5" height="2.5"/>
<rect x="51.9" y="30" class="st18" width="2.5" height="2.5"/>
<rect x="52.3" y="36.3" class="st19" width="2.5" height="2.5"/>
<rect x="52.7" y="39.6" class="st2" width="2.5" height="2.5"/>
<rect x="51.9" y="42.9" class="st2" width="2.5" height="2.5"/>
<rect x="50.5" y="46.2" class="st9" width="2.5" height="2.5"/>
<rect x="46.5" y="49" class="st20" width="2.5" height="2.5"/>
<rect x="48.6" y="39.1" class="st1" width="2.5" height="2.5"/>
<rect x="41.5" y="30.7" class="st21" width="2.5" height="2.5"/>
<rect x="45.2" y="32.9" class="st7" width="2.5" height="2.5"/>
<rect x="48.5" y="32.4" class="st22" width="2.5" height="2.5"/>
<rect x="48.9" y="35.8" class="st8" width="2.5" height="2.5"/>
<rect x="41.5" y="34" class="st23" width="2.5" height="2.5"/>
<rect x="41.8" y="37.3" class="st24" width="2.5" height="2.5"/>
<rect x="41" y="40.6" class="st25" width="2.5" height="2.5"/>
<rect x="37.3" y="40.2" class="st0" width="2.5" height="2.5"/>
<rect x="40.3" y="43.9" class="st26" width="2.5" height="2.5"/>
<rect x="45" y="39.5" class="st15" width="2.5" height="2.5"/>
<rect x="44" y="42.8" class="st27" width="2.5" height="2.5"/>
<rect x="43.2" y="45.9" class="st28" width="2.5" height="2.5"/>
<rect x="40" y="47" class="st29" width="2.5" height="2.5"/>
<rect x="43.2" y="49" class="st30" width="2.5" height="2.5"/>
<rect x="40.1" y="50.3" class="st17" width="2.5" height="2.5"/>
<rect x="37.2" y="52.6" class="st31" width="2.5" height="2.5"/>
<rect x="43.8" y="52.3" class="st32" width="2.5" height="2.5"/>
<rect x="33.9" y="49" class="st7" width="2.5" height="2.5"/>
<rect x="33.9" y="52.6" class="st33" width="2.5" height="2.5"/>
<rect x="34.3" y="56.1" class="st2" width="2.5" height="2.5"/>
<rect x="40.4" y="53.8" class="st34" width="2.5" height="2.5"/>
<rect x="37.4" y="56" class="st27" width="2.5" height="2.5"/>
<rect x="31" y="56.9" class="st1" width="2.5" height="2.5"/>
<rect x="30.8" y="49.2" class="st35" width="2.5" height="2.5"/>
<rect x="27.6" y="51.1" class="st36" width="2.5" height="2.5"/>
<rect x="46.8" y="45.7" class="st37" width="2.5" height="2.5"/>
<rect x="48.3" y="42.5" class="st4" width="2.5" height="2.7"/>
<rect x="36.9" y="49.6" class="st38" width="2.5" height="2.5"/>
<rect x="45.3" y="36.2" class="st39" width="2.5" height="2.5"/>
<rect x="18.1" y="8" class="st40" width="2.5" height="2.5"/>
<rect x="21.3" y="3.8" class="st20" width="2.5" height="2.5"/>
<rect x="18.3" y="5" class="st29" width="2.5" height="2.5"/>
<rect x="24.5" y="3.5" class="st41" width="2.5" height="2.5"/>
<rect x="34.1" y="1.3" class="st8" width="2.5" height="2.5"/>
<rect x="20.9" y="0.6" class="st8" width="2.5" height="2.5"/>
<rect x="40.3" y="5.2" class="st42" width="2.5" height="2.5"/>
<rect x="43.8" y="7.7" class="st4" width="2.5" height="2.5"/>
<rect x="50.3" y="17.1" class="st13" width="2.5" height="2.5"/>
<rect x="51.1" y="20.4" class="st9" width="2.5" height="2.5"/>
<rect x="46.9" y="10.6" class="st6" width="2.5" height="2.5"/>
<rect x="40.5" y="14.8" class="st43" width="2.5" height="2.5"/>
<rect x="40.8" y="11.7" class="st20" width="2.5" height="2.5"/>
<rect x="40.4" y="8.5" class="st43" width="2.5" height="2.5"/>
<rect x="34.1" y="11.9" class="st43" width="2.5" height="2.5"/>
<rect x="48.4" y="13.8" class="st8" width="2.5" height="2.5"/>
<rect x="44" y="19.8" class="st44" width="2.5" height="2.5"/>
<rect x="43.7" y="16.8" class="st44" width="2.5" height="2.5"/>
<rect x="44.8" y="29.5" class="st8" width="2.5" height="2.5"/>
<rect x="48.4" y="29.2" class="st45" width="2.5" height="2.5"/>
<rect x="24.3" class="st8" width="2.5" height="2.5"/>
<rect x="27.8" y="3.8" class="st8" width="2.5" height="2.5"/>
<rect x="27.8" y="0.5" class="st9" width="2.5" height="2.5"/>
<rect x="27.7" y="7.3" class="st3" width="2.5" height="2.5"/>
<rect x="27.9" y="10.8" class="st46" width="2.5" height="2.5"/>
<rect x="30.9" y="0.1" class="st8" width="2.5" height="2.5"/>
<rect x="27.9" y="14.5" class="st47" width="2.5" height="2.5"/>
<rect x="24.8" y="13.7" class="st48" width="2.5" height="2.5"/>
<rect x="27.8" y="44.8" class="st13" width="2.5" height="2.5"/>
<rect x="27.9" y="41.3" class="st12" width="2.5" height="2.5"/>
<rect x="30.8" y="42.3" class="st13" width="2.5" height="2.5"/>
<rect x="31.1" y="13.9" class="st49" width="2.5" height="2.5"/>
<rect x="30.9" y="17.8" class="st50" width="2.5" height="2.5"/>
<rect x="37.3" y="10.2" class="st49" width="2.5" height="2.5"/>
<rect x="47.1" y="16.7" class="st49" width="2.5" height="2.5"/>
<rect x="47.8" y="22.9" class="st49" width="2.5" height="2.5"/>
<rect x="47.4" y="19.8" class="st15" width="2.5" height="2.5"/>
<rect x="44.1" y="22.9" class="st51" width="2.5" height="2.5"/>
<rect x="41.5" y="27.3" class="st1" width="2.5" height="2.5"/>
<rect x="41" y="21.1" class="st49" width="2.5" height="2.5"/>
<rect x="40.6" y="18" class="st8" width="2.5" height="2.5"/>
<rect x="44.4" y="14" class="st15" width="2.5" height="2.5"/>
<rect x="43.9" y="10.8" class="st52" width="2.5" height="2.5"/>
<rect x="44.7" y="26" class="st53" width="2.5" height="2.5"/>
<rect x="48.3" y="26" class="st54" width="2.5" height="2.5"/>
<rect x="21.6" y="20.1" class="st50" width="2.5" height="2.5"/>
<rect x="15.3" y="14.8" class="st55" width="2.5" height="2.5"/>
<rect x="24.4" y="6.7" class="st56" width="2.5" height="2.5"/>
<rect x="17.5" y="11.3" class="st15" width="2.5" height="2.5"/>
<rect x="15" y="8.3" class="st2" width="2.5" height="2.5"/>
<rect x="13.8" y="11.3" class="st51" width="2.5" height="2.5"/>
<rect x="10.7" y="11.5" class="st15" width="2.5" height="2.5"/>
<rect x="8.8" y="21" class="st6" width="2.5" height="2.5"/>
<rect x="5.8" y="20.9" class="st16" width="2.5" height="2.5"/>
<rect x="4.7" y="27.1" class="st3" width="2.5" height="2.5"/>
<rect x="4.8" y="24.1" class="st57" width="2.5" height="2.5"/>
<rect x="8.3" y="24.1" class="st58" width="2.5" height="2.5"/>
<rect x="24.9" y="30.5" class="st50" width="2.5" height="2.5"/>
<rect x="24.8" y="27.1" class="st15" width="2.5" height="2.5"/>
<rect x="21.9" y="33.6" class="st50" width="2.5" height="2.5"/>
<rect x="31.3" y="31.6" class="st50" width="2.5" height="2.5"/>
<rect x="31.1" y="21.2" class="st50" width="2.5" height="2.5"/>
<rect x="30.9" y="7.4" class="st15" width="2.5" height="2.5"/>
<rect x="31" y="10.8" class="st59" width="2.5" height="2.5"/>
<rect x="37.4" y="13.5" class="st55" width="2.5" height="2.5"/>
<rect x="40.9" y="24.3" class="st15" width="2.5" height="2.5"/>
<rect x="21.5" y="23.4" class="st50" width="2.5" height="2.5"/>
<rect x="20.7" y="44.1" class="st43" width="2.5" height="2.5"/>
<rect x="24.7" y="23.7" class="st60" width="2.5" height="2.5"/>
<rect x="21.6" y="37" class="st50" width="2.5" height="2.5"/>
<rect x="30.8" y="38.2" class="st60" width="2.5" height="2.5"/>
<rect x="28.2" y="34.6" class="st61" width="2.5" height="2.5"/>
<rect x="24.7" y="20.4" class="st50" width="2.5" height="2.5"/>
<rect x="31" y="3.8" class="st62" width="2.5" height="2.5"/>
<rect x="11.6" y="24.1" class="st36" width="2.5" height="2.5"/>
<rect x="8.6" y="27.4" class="st6" width="2.5" height="2.5"/>
<rect x="15" y="21" class="st55" width="2.5" height="2.5"/>
<rect x="14.7" y="17.9" class="st63" width="2.5" height="2.5"/>
<rect x="18.3" y="21.1" class="st13" width="2.5" height="2.5"/>
<rect x="18.2" y="17.7" class="st0" width="2.5" height="2.5"/>
<rect x="10.5" y="44" class="st13" width="2.5" height="2.5"/>
<rect x="18.3" y="24.2" class="st53" width="2.5" height="2.5"/>
<rect x="21.8" y="30.1" class="st0" width="2.5" height="2.5"/>
<rect x="21.6" y="26.8" class="st18" width="2.5" height="2.5"/>
<rect x="18.6" y="30.8" class="st55" width="2.5" height="2.5"/>
<rect x="18.2" y="27.3" class="st40" width="2.5" height="2.5"/>
<rect x="14.7" y="27.7" class="st64" width="2.5" height="2.5"/>
<rect x="11.9" y="30.4" class="st17" width="2.5" height="2.5"/>
<rect x="11.2" y="33.9" class="st3" width="2.5" height="2.5"/>
<rect x="15.4" y="30.8" class="st28" width="2.5" height="2.5"/>
<rect x="15.1" y="34.3" class="st19" width="2.5" height="2.5"/>
<rect x="11.5" y="37.3" class="st13" width="2.5" height="2.5"/>
<rect x="18.3" y="37.5" class="st50" width="2.5" height="2.5"/>
<rect x="18.6" y="34" class="st0" width="2.5" height="2.5"/>
<rect x="17.5" y="40.7" class="st50" width="2.5" height="2.5"/>
<rect x="17.3" y="44" class="st51" width="2.5" height="2.5"/>
<rect x="17.2" y="47.5" class="st65" width="2.5" height="2.5"/>
<rect x="13.9" y="43.9" class="st38" width="2.5" height="2.5"/>
<rect x="13.6" y="47.2" class="st66" width="2.5" height="2.5"/>
<rect x="18.5" y="14.4" class="st67" width="2.5" height="2.5"/>
<rect x="21.6" y="13.5" class="st50" width="2.5" height="2.5"/>
<rect x="21.5" y="16.8" class="st50" width="2.5" height="2.5"/>
<rect x="24.5" y="10.3" class="st51" width="2.5" height="2.5"/>
<rect x="34.4" y="15.4" class="st50" width="2.5" height="2.5"/>
<rect x="37.5" y="16.8" class="st0" width="2.5" height="2.5"/>
<rect x="34.4" y="21.7" class="st50" width="2.5" height="2.5"/>
<rect x="34.5" y="24.9" class="st29" width="2.5" height="2.5"/>
<rect x="31.1" y="24.6" class="st50" width="2.5" height="2.5"/>
<rect x="31.1" y="28.1" class="st50" width="2.5" height="2.5"/>
<rect x="37.6" y="23.4" class="st43" width="2.5" height="2.5"/>
<rect x="34.7" y="35" class="st0" width="2.5" height="2.5"/>
<rect x="37.9" y="30.1" class="st4" width="2.5" height="2.5"/>
<rect x="34.2" y="38.2" class="st50" width="2.5" height="2.5"/>
<rect x="34" y="41.4" class="st50" width="2.5" height="2.5"/>
<rect x="33.9" y="45.2" class="st13" width="2.5" height="2.5"/>
<rect x="37" y="46.4" class="st43" width="2.5" height="2.5"/>
<rect x="38" y="37.1" class="st0" width="2.5" height="2.5"/>
<rect x="38" y="33.5" class="st68" width="2.5" height="2.5"/>
<rect x="31.7" y="35" class="st0" width="2.5" height="2.5"/>
<rect x="37.9" y="27" class="st26" width="2.5" height="2.5"/>
<rect x="21.1" y="10.4" class="st41" width="2.5" height="2.5"/>
<rect x="21.3" y="7.2" class="st55" width="2.5" height="2.5"/>
<rect x="5.5" y="14.8" class="st67" width="2.5" height="2.5"/>
<rect x="8.7" y="14.8" class="st69" width="2.5" height="2.5"/>
<rect x="7.3" y="11.4" class="st10" width="2.5" height="2.5"/>
<rect x="8.8" y="8" class="st4" width="2.5" height="2.5"/>
<rect x="3.9" y="40" class="st54" width="2.5" height="2.5"/>
<rect x="11.3" y="57.2" class="st8" width="2.5" height="2.5"/>
<rect x="11.3" y="54.2" class="st58" width="2.5" height="2.5"/>
<rect x="20.5" y="50.9" class="st58" width="2.5" height="2.5"/>
<rect x="8.3" y="52.5" class="st57" width="2.5" height="2.5"/>
<rect x="6.3" y="46.5" class="st69" width="2.5" height="2.5"/>
<rect x="3.9" y="43.2" class="st55" width="2.5" height="2.5"/>
<rect x="7.3" y="43.6" class="st15" width="2.5" height="2.5"/>
<rect x="4.5" y="36.8" class="st15" width="2.5" height="2.5"/>
<rect x="4.2" y="33.5" class="st55" width="2.5" height="2.5"/>
<rect x="7.7" y="33.7" class="st69" width="2.5" height="2.5"/>
<rect x="5" y="30.4" class="st1" width="2.5" height="2.5"/>
<rect x="24.1" y="54.3" class="st70" width="2.5" height="2.5"/>
<rect x="27.8" y="17.9" class="st71" width="2.5" height="2.5"/>
<rect x="24.5" y="43.5" class="st71" width="2.5" height="2.5"/>
<rect x="27.9" y="21.5" class="st72" width="2.5" height="2.5"/>
<rect x="28" y="24.8" class="st50" width="2.5" height="2.5"/>
<rect x="34.1" y="4.9" class="st73" width="2.5" height="2.5"/>
<rect x="34.1" y="8.5" class="st73" width="2.5" height="2.5"/>
<rect x="27.9" y="28.2" class="st50" width="2.5" height="2.5"/>
<rect x="37.1" y="6.8" class="st74" width="2.5" height="2.5"/>
<rect x="24.4" y="47.1" class="st75" width="2.5" height="2.5"/>
<rect x="20.7" y="47.3" class="st15" width="2.5" height="2.5"/>
<rect x="20.9" y="40.8" class="st76" width="2.5" height="2.5"/>
<rect x="23.9" y="50.5" class="st6" width="2.5" height="2.5"/>
<rect x="27.8" y="47.9" class="st4" width="2.5" height="2.5"/>
<rect x="25" y="34.1" class="st75" width="2.5" height="2.5"/>
<rect x="24.9" y="37.3" class="st75" width="2.5" height="2.5"/>
<rect x="27.9" y="38.1" class="st47" width="2.5" height="2.5"/>
<rect x="28.1" y="31.4" class="st77" width="2.5" height="2.5"/>
<rect x="7.2" y="40.3" class="st78" width="2.5" height="2.5"/>
<rect x="14" y="40.6" class="st27" width="2.5" height="2.5"/>
<rect x="8.1" y="37.2" class="st79" width="2.5" height="2.5"/>
<rect x="11.3" y="50.8" class="st78" width="2.5" height="2.5"/>
<rect x="10.1" y="47.5" class="st78" width="2.5" height="2.5"/>
<rect x="17.3" y="53.8" class="st78" width="2.5" height="2.5"/>
<rect x="8.3" y="55.5" class="st4" width="2.5" height="2.5"/>
<rect x="5.3" y="52.5" class="st14" width="2.5" height="2.5"/>
<rect x="7.2" y="49.3" class="st11" width="2.5" height="2.5"/>
<rect x="3.7" y="49.5" class="st5" width="2.5" height="2.5"/>
<rect x="2" y="46.5" class="st65" width="2.5" height="2.5"/>
<rect x="0.5" y="43.4" class="st14" width="2.5" height="2.5"/>
<rect x="34.7" y="28.4" class="st78" width="2.5" height="2.5"/>
<rect x="34.5" y="31.6" class="st50" width="2.5" height="2.5"/>
<rect x="10.5" y="40.4" class="st20" width="2.5" height="2.5"/>
<rect x="24.3" y="40.5" class="st20" width="2.5" height="2.5"/>
<rect x="14.9" y="24.3" class="st55" width="2.5" height="2.5"/>
<rect x="37.6" y="20.2" class="st80" width="2.5" height="2.5"/>
<rect x="34.4" y="18.5" class="st50" width="2.5" height="2.5"/>
<rect x="11.6" y="27.2" class="st75" width="2.5" height="2.5"/>
<rect x="8.6" y="30.6" class="st58" width="2.5" height="2.5"/>
<rect x="14.8" y="37.4" class="st58" width="2.5" height="2.5"/>
<rect x="30.7" y="53" class="st51" width="2.5" height="2.5"/>
<rect x="30.7" y="45.8" class="st15" width="2.5" height="2.5"/>
<rect x="11.9" y="20.9" class="st13" width="2.5" height="2.5"/>
<rect x="24.5" y="17.1" class="st50" width="2.5" height="2.5"/>
<rect x="37" y="43.4" class="st50" width="2.5" height="2.5"/>
</svg>
